<mxfile host="65bd71144e">
    <diagram id="NgPiO3wHMoQVb4be1YfF" name="第 1 页">
        <mxGraphModel dx="1097" dy="771" grid="1" gridSize="10" guides="1" tooltips="1" connect="1" arrows="1" fold="1" page="1" pageScale="1" pageWidth="827" pageHeight="1169" math="0" shadow="0">
            <root>
                <mxCell id="0"/>
                <mxCell id="1" parent="0"/>
                <mxCell id="3" value="应用服务器" style="verticalAlign=top;align=center;shape=cube;size=10;direction=south;fontStyle=0;html=1;boundedLbl=1;spacingLeft=5;" vertex="1" parent="1">
                    <mxGeometry x="360" y="280" width="126" height="70" as="geometry"/>
                </mxCell>
                <mxCell id="5" value="数据库服务器" style="verticalAlign=top;align=center;shape=cube;size=10;direction=south;fontStyle=0;html=1;boundedLbl=1;spacingLeft=5;" vertex="1" parent="1">
                    <mxGeometry x="220" y="140" width="126" height="70" as="geometry"/>
                </mxCell>
                <mxCell id="6" value="财务助手客户端" style="verticalAlign=top;align=center;shape=cube;size=10;direction=south;fontStyle=0;html=1;boundedLbl=1;spacingLeft=5;" vertex="1" parent="1">
                    <mxGeometry x="351" y="410" width="126" height="70" as="geometry"/>
                </mxCell>
                <mxCell id="7" value="静态资源服务器" style="verticalAlign=top;align=center;shape=cube;size=10;direction=south;fontStyle=0;html=1;boundedLbl=1;spacingLeft=5;" vertex="1" parent="1">
                    <mxGeometry x="480" y="140" width="126" height="70" as="geometry"/>
                </mxCell>
                <mxCell id="8" value="" style="endArrow=none;html=1;entryX=0;entryY=0;entryDx=70;entryDy=68;entryPerimeter=0;exitX=0;exitY=0;exitDx=0;exitDy=58;exitPerimeter=0;" edge="1" parent="1" source="3" target="7">
                    <mxGeometry width="50" height="50" relative="1" as="geometry">
                        <mxPoint x="270" y="430" as="sourcePoint"/>
                        <mxPoint x="320" y="380" as="targetPoint"/>
                        <Array as="points">
                            <mxPoint x="428" y="250"/>
                            <mxPoint x="538" y="250"/>
                        </Array>
                    </mxGeometry>
                </mxCell>
                <mxCell id="9" value="" style="endArrow=none;html=1;entryX=0;entryY=0;entryDx=70;entryDy=68;entryPerimeter=0;exitX=0;exitY=0;exitDx=0;exitDy=58;exitPerimeter=0;" edge="1" parent="1" source="6" target="3">
                    <mxGeometry width="50" height="50" relative="1" as="geometry">
                        <mxPoint x="280" y="440" as="sourcePoint"/>
                        <mxPoint x="330" y="390" as="targetPoint"/>
                    </mxGeometry>
                </mxCell>
                <mxCell id="10" value="" style="endArrow=none;html=1;entryX=0;entryY=0;entryDx=70;entryDy=68;entryPerimeter=0;exitX=0;exitY=0;exitDx=0;exitDy=58;exitPerimeter=0;" edge="1" parent="1" source="3" target="5">
                    <mxGeometry width="50" height="50" relative="1" as="geometry">
                        <mxPoint x="420" y="240" as="sourcePoint"/>
                        <mxPoint x="340" y="400" as="targetPoint"/>
                        <Array as="points">
                            <mxPoint x="428" y="250"/>
                            <mxPoint x="278" y="250"/>
                        </Array>
                    </mxGeometry>
                </mxCell>
                <mxCell id="11" value="&amp;lt;&amp;lt;局域网&amp;gt;&amp;gt;" style="text;html=1;align=center;verticalAlign=middle;resizable=0;points=[];autosize=1;strokeColor=none;fillColor=none;" vertex="1" parent="1">
                    <mxGeometry x="280" y="230" width="80" height="20" as="geometry"/>
                </mxCell>
                <mxCell id="12" value="&amp;lt;&amp;lt;局域网&amp;gt;&amp;gt;" style="text;html=1;align=center;verticalAlign=middle;resizable=0;points=[];autosize=1;strokeColor=none;fillColor=none;" vertex="1" parent="1">
                    <mxGeometry x="452" y="230" width="80" height="20" as="geometry"/>
                </mxCell>
            </root>
        </mxGraphModel>
    </diagram>
</mxfile>